<mxfile host="app.diagrams.net" modified="2023-10-21T15:26:11.286Z" agent="Mozilla/5.0 (Windows NT 10.0; Win64; x64) AppleWebKit/537.36 (KHTML, like Gecko) Chrome/118.0.0.0 Safari/537.36" etag="v2pT2Y6T2ZV_KaKn_2R4" version="22.0.6" type="github">
  <diagram name="PÃ¡gina-1" id="kpMu6ErjYtjXiAjzQxuT">
    <mxGraphModel dx="1434" dy="750" grid="1" gridSize="10" guides="1" tooltips="1" connect="1" arrows="1" fold="1" page="1" pageScale="1" pageWidth="827" pageHeight="1169" math="0" shadow="0">
      <root>
        <mxCell id="0" />
        <mxCell id="1" parent="0" />
        <mxCell id="grHtKXQzRohqxR9XQCwC-1" value="Jugador" style="whiteSpace=wrap;html=1;align=center;" parent="1" vertex="1">
          <mxGeometry x="130" y="200" width="100" height="40" as="geometry" />
        </mxCell>
        <mxCell id="grHtKXQzRohqxR9XQCwC-2" value="Ficha" style="ellipse;whiteSpace=wrap;html=1;align=center;fontStyle=4;" parent="1" vertex="1">
          <mxGeometry x="130" y="120" width="100" height="40" as="geometry" />
        </mxCell>
        <mxCell id="grHtKXQzRohqxR9XQCwC-3" value="Nombre" style="ellipse;whiteSpace=wrap;html=1;align=center;" parent="1" vertex="1">
          <mxGeometry x="250" y="120" width="100" height="40" as="geometry" />
        </mxCell>
        <mxCell id="grHtKXQzRohqxR9XQCwC-4" value="Apellido" style="ellipse;whiteSpace=wrap;html=1;align=center;" parent="1" vertex="1">
          <mxGeometry x="10" y="120" width="100" height="40" as="geometry" />
        </mxCell>
        <mxCell id="grHtKXQzRohqxR9XQCwC-5" value="Equipo" style="whiteSpace=wrap;html=1;align=center;" parent="1" vertex="1">
          <mxGeometry x="130" y="440" width="100" height="40" as="geometry" />
        </mxCell>
        <mxCell id="grHtKXQzRohqxR9XQCwC-6" value="ID" style="ellipse;whiteSpace=wrap;html=1;align=center;fontStyle=4;" parent="1" vertex="1">
          <mxGeometry x="130" y="520" width="100" height="40" as="geometry" />
        </mxCell>
        <mxCell id="grHtKXQzRohqxR9XQCwC-7" value="Nombre" style="ellipse;whiteSpace=wrap;html=1;align=center;" parent="1" vertex="1">
          <mxGeometry x="240" y="520" width="100" height="40" as="geometry" />
        </mxCell>
        <mxCell id="grHtKXQzRohqxR9XQCwC-8" value="Localidad" style="ellipse;whiteSpace=wrap;html=1;align=center;" parent="1" vertex="1">
          <mxGeometry x="10" y="520" width="100" height="40" as="geometry" />
        </mxCell>
        <mxCell id="grHtKXQzRohqxR9XQCwC-9" value="Fichar" style="shape=rhombus;perimeter=rhombusPerimeter;whiteSpace=wrap;html=1;align=center;" parent="1" vertex="1">
          <mxGeometry x="120" y="310" width="120" height="60" as="geometry" />
        </mxCell>
        <mxCell id="grHtKXQzRohqxR9XQCwC-10" value="0, 1" style="text;strokeColor=none;fillColor=none;spacingLeft=4;spacingRight=4;overflow=hidden;rotatable=0;points=[[0,0.5],[1,0.5]];portConstraint=eastwest;fontSize=12;whiteSpace=wrap;html=1;" parent="1" vertex="1">
          <mxGeometry x="160" y="400" width="40" height="30" as="geometry" />
        </mxCell>
        <mxCell id="grHtKXQzRohqxR9XQCwC-11" value="N, N" style="text;strokeColor=none;fillColor=none;spacingLeft=4;spacingRight=4;overflow=hidden;rotatable=0;points=[[0,0.5],[1,0.5]];portConstraint=eastwest;fontSize=12;whiteSpace=wrap;html=1;" parent="1" vertex="1">
          <mxGeometry x="160" y="250" width="40" height="30" as="geometry" />
        </mxCell>
        <mxCell id="grHtKXQzRohqxR9XQCwC-12" value="" style="endArrow=none;html=1;rounded=0;exitX=0.5;exitY=0;exitDx=0;exitDy=0;entryX=0.5;entryY=1;entryDx=0;entryDy=0;entryPerimeter=0;" parent="1" source="grHtKXQzRohqxR9XQCwC-5" target="grHtKXQzRohqxR9XQCwC-10" edge="1">
          <mxGeometry relative="1" as="geometry">
            <mxPoint x="330" y="400" as="sourcePoint" />
            <mxPoint x="490" y="400" as="targetPoint" />
          </mxGeometry>
        </mxCell>
        <mxCell id="grHtKXQzRohqxR9XQCwC-13" value="" style="endArrow=none;html=1;rounded=0;exitX=0.5;exitY=0;exitDx=0;exitDy=0;exitPerimeter=0;entryX=0.5;entryY=1;entryDx=0;entryDy=0;" parent="1" source="grHtKXQzRohqxR9XQCwC-10" target="grHtKXQzRohqxR9XQCwC-9" edge="1">
          <mxGeometry relative="1" as="geometry">
            <mxPoint x="330" y="400" as="sourcePoint" />
            <mxPoint x="490" y="400" as="targetPoint" />
          </mxGeometry>
        </mxCell>
        <mxCell id="grHtKXQzRohqxR9XQCwC-14" value="" style="endArrow=none;html=1;rounded=0;exitX=0.5;exitY=0;exitDx=0;exitDy=0;entryX=0.5;entryY=1;entryDx=0;entryDy=0;entryPerimeter=0;" parent="1" source="grHtKXQzRohqxR9XQCwC-9" target="grHtKXQzRohqxR9XQCwC-11" edge="1">
          <mxGeometry relative="1" as="geometry">
            <mxPoint x="330" y="400" as="sourcePoint" />
            <mxPoint x="490" y="400" as="targetPoint" />
          </mxGeometry>
        </mxCell>
        <mxCell id="grHtKXQzRohqxR9XQCwC-15" value="" style="endArrow=none;html=1;rounded=0;exitX=0.5;exitY=1;exitDx=0;exitDy=0;entryX=0.5;entryY=0;entryDx=0;entryDy=0;entryPerimeter=0;" parent="1" source="grHtKXQzRohqxR9XQCwC-1" target="grHtKXQzRohqxR9XQCwC-11" edge="1">
          <mxGeometry relative="1" as="geometry">
            <mxPoint x="330" y="400" as="sourcePoint" />
            <mxPoint x="490" y="400" as="targetPoint" />
          </mxGeometry>
        </mxCell>
        <mxCell id="grHtKXQzRohqxR9XQCwC-16" value="Partido" style="whiteSpace=wrap;html=1;align=center;" parent="1" vertex="1">
          <mxGeometry x="510" y="440" width="100" height="40" as="geometry" />
        </mxCell>
        <mxCell id="grHtKXQzRohqxR9XQCwC-17" value="ID" style="ellipse;whiteSpace=wrap;html=1;align=center;fontStyle=4;" parent="1" vertex="1">
          <mxGeometry x="640" y="600" width="100" height="40" as="geometry" />
        </mxCell>
        <mxCell id="grHtKXQzRohqxR9XQCwC-18" value="Fecha" style="ellipse;whiteSpace=wrap;html=1;align=center;" parent="1" vertex="1">
          <mxGeometry x="680" y="530" width="100" height="40" as="geometry" />
        </mxCell>
        <mxCell id="grHtKXQzRohqxR9XQCwC-19" value="Estadio" style="ellipse;whiteSpace=wrap;html=1;align=center;" parent="1" vertex="1">
          <mxGeometry x="510" y="600" width="100" height="40" as="geometry" />
        </mxCell>
        <mxCell id="grHtKXQzRohqxR9XQCwC-20" value="Resultado" style="ellipse;whiteSpace=wrap;html=1;align=center;" parent="1" vertex="1">
          <mxGeometry x="400" y="600" width="100" height="40" as="geometry" />
        </mxCell>
        <mxCell id="grHtKXQzRohqxR9XQCwC-21" value="Participar" style="shape=rhombus;perimeter=rhombusPerimeter;whiteSpace=wrap;html=1;align=center;" parent="1" vertex="1">
          <mxGeometry x="310" y="430" width="120" height="60" as="geometry" />
        </mxCell>
        <mxCell id="grHtKXQzRohqxR9XQCwC-22" value="Hora" style="ellipse;whiteSpace=wrap;html=1;align=center;" parent="1" vertex="1">
          <mxGeometry x="680" y="440" width="100" height="40" as="geometry" />
        </mxCell>
        <mxCell id="grHtKXQzRohqxR9XQCwC-23" value="Ocurrir" style="shape=rhombus;perimeter=rhombusPerimeter;whiteSpace=wrap;html=1;align=center;" parent="1" vertex="1">
          <mxGeometry x="500" y="310" width="120" height="60" as="geometry" />
        </mxCell>
        <mxCell id="grHtKXQzRohqxR9XQCwC-24" value="Evento" style="whiteSpace=wrap;html=1;align=center;" parent="1" vertex="1">
          <mxGeometry x="510" y="200" width="100" height="40" as="geometry" />
        </mxCell>
        <mxCell id="grHtKXQzRohqxR9XQCwC-25" value="ID" style="ellipse;whiteSpace=wrap;html=1;align=center;fontStyle=4;" parent="1" vertex="1">
          <mxGeometry x="510" y="120" width="100" height="40" as="geometry" />
        </mxCell>
        <mxCell id="grHtKXQzRohqxR9XQCwC-26" value="Minuto" style="ellipse;whiteSpace=wrap;html=1;align=center;" parent="1" vertex="1">
          <mxGeometry x="640" y="200" width="100" height="40" as="geometry" />
        </mxCell>
        <mxCell id="grHtKXQzRohqxR9XQCwC-27" value="Tipo" style="ellipse;whiteSpace=wrap;html=1;align=center;" parent="1" vertex="1">
          <mxGeometry x="640" y="120" width="100" height="40" as="geometry" />
        </mxCell>
        <mxCell id="grHtKXQzRohqxR9XQCwC-28" value="Provocar" style="shape=rhombus;perimeter=rhombusPerimeter;whiteSpace=wrap;html=1;align=center;" parent="1" vertex="1">
          <mxGeometry x="310" y="190" width="120" height="60" as="geometry" />
        </mxCell>
        <mxCell id="grHtKXQzRohqxR9XQCwC-29" value="0, N" style="text;strokeColor=none;fillColor=none;spacingLeft=4;spacingRight=4;overflow=hidden;rotatable=0;points=[[0,0.5],[1,0.5]];portConstraint=eastwest;fontSize=12;whiteSpace=wrap;html=1;" parent="1" vertex="1">
          <mxGeometry x="460" y="205" width="40" height="30" as="geometry" />
        </mxCell>
        <mxCell id="grHtKXQzRohqxR9XQCwC-30" value="0, N" style="text;strokeColor=none;fillColor=none;spacingLeft=4;spacingRight=4;overflow=hidden;rotatable=0;points=[[0,0.5],[1,0.5]];portConstraint=eastwest;fontSize=12;whiteSpace=wrap;html=1;" parent="1" vertex="1">
          <mxGeometry x="240" y="205" width="40" height="30" as="geometry" />
        </mxCell>
        <mxCell id="grHtKXQzRohqxR9XQCwC-31" value="0, N" style="text;strokeColor=none;fillColor=none;spacingLeft=4;spacingRight=4;overflow=hidden;rotatable=0;points=[[0,0.5],[1,0.5]];portConstraint=eastwest;fontSize=12;whiteSpace=wrap;html=1;" parent="1" vertex="1">
          <mxGeometry x="540" y="260" width="40" height="30" as="geometry" />
        </mxCell>
        <mxCell id="grHtKXQzRohqxR9XQCwC-32" value="0, N" style="text;strokeColor=none;fillColor=none;spacingLeft=4;spacingRight=4;overflow=hidden;rotatable=0;points=[[0,0.5],[1,0.5]];portConstraint=eastwest;fontSize=12;whiteSpace=wrap;html=1;" parent="1" vertex="1">
          <mxGeometry x="540" y="400" width="40" height="30" as="geometry" />
        </mxCell>
        <mxCell id="grHtKXQzRohqxR9XQCwC-33" value="1, N" style="text;strokeColor=none;fillColor=none;spacingLeft=4;spacingRight=4;overflow=hidden;rotatable=0;points=[[0,0.5],[1,0.5]];portConstraint=eastwest;fontSize=12;whiteSpace=wrap;html=1;" parent="1" vertex="1">
          <mxGeometry x="460" y="445" width="40" height="30" as="geometry" />
        </mxCell>
        <mxCell id="grHtKXQzRohqxR9XQCwC-34" value="N, N" style="text;strokeColor=none;fillColor=none;spacingLeft=4;spacingRight=4;overflow=hidden;rotatable=0;points=[[0,0.5],[1,0.5]];portConstraint=eastwest;fontSize=12;whiteSpace=wrap;html=1;" parent="1" vertex="1">
          <mxGeometry x="250" y="445" width="40" height="30" as="geometry" />
        </mxCell>
        <mxCell id="grHtKXQzRohqxR9XQCwC-35" value="" style="endArrow=none;html=1;rounded=0;exitX=1;exitY=0.5;exitDx=0;exitDy=0;entryX=0;entryY=0.5;entryDx=0;entryDy=0;" parent="1" source="grHtKXQzRohqxR9XQCwC-5" target="grHtKXQzRohqxR9XQCwC-34" edge="1">
          <mxGeometry relative="1" as="geometry">
            <mxPoint x="330" y="350" as="sourcePoint" />
            <mxPoint x="490" y="350" as="targetPoint" />
          </mxGeometry>
        </mxCell>
        <mxCell id="grHtKXQzRohqxR9XQCwC-36" value="" style="endArrow=none;html=1;rounded=0;exitX=1;exitY=0.5;exitDx=0;exitDy=0;entryX=0;entryY=0.5;entryDx=0;entryDy=0;" parent="1" source="grHtKXQzRohqxR9XQCwC-34" target="grHtKXQzRohqxR9XQCwC-21" edge="1">
          <mxGeometry relative="1" as="geometry">
            <mxPoint x="330" y="350" as="sourcePoint" />
            <mxPoint x="490" y="350" as="targetPoint" />
          </mxGeometry>
        </mxCell>
        <mxCell id="grHtKXQzRohqxR9XQCwC-37" value="" style="endArrow=none;html=1;rounded=0;exitX=1;exitY=0.5;exitDx=0;exitDy=0;entryX=0;entryY=0.5;entryDx=0;entryDy=0;" parent="1" source="grHtKXQzRohqxR9XQCwC-21" target="grHtKXQzRohqxR9XQCwC-33" edge="1">
          <mxGeometry relative="1" as="geometry">
            <mxPoint x="340" y="360" as="sourcePoint" />
            <mxPoint x="500" y="360" as="targetPoint" />
          </mxGeometry>
        </mxCell>
        <mxCell id="grHtKXQzRohqxR9XQCwC-38" value="" style="endArrow=none;html=1;rounded=0;exitX=1;exitY=0.5;exitDx=0;exitDy=0;entryX=0;entryY=0.5;entryDx=0;entryDy=0;" parent="1" source="grHtKXQzRohqxR9XQCwC-33" target="grHtKXQzRohqxR9XQCwC-16" edge="1">
          <mxGeometry relative="1" as="geometry">
            <mxPoint x="350" y="370" as="sourcePoint" />
            <mxPoint x="510" y="370" as="targetPoint" />
          </mxGeometry>
        </mxCell>
        <mxCell id="grHtKXQzRohqxR9XQCwC-39" value="" style="endArrow=none;html=1;rounded=0;exitX=1;exitY=0.5;exitDx=0;exitDy=0;entryX=0;entryY=0.5;entryDx=0;entryDy=0;" parent="1" source="grHtKXQzRohqxR9XQCwC-1" target="grHtKXQzRohqxR9XQCwC-30" edge="1">
          <mxGeometry relative="1" as="geometry">
            <mxPoint x="360" y="380" as="sourcePoint" />
            <mxPoint x="520" y="380" as="targetPoint" />
          </mxGeometry>
        </mxCell>
        <mxCell id="grHtKXQzRohqxR9XQCwC-40" value="" style="endArrow=none;html=1;rounded=0;exitX=1;exitY=0.5;exitDx=0;exitDy=0;entryX=0;entryY=0.5;entryDx=0;entryDy=0;" parent="1" source="grHtKXQzRohqxR9XQCwC-30" target="grHtKXQzRohqxR9XQCwC-28" edge="1">
          <mxGeometry relative="1" as="geometry">
            <mxPoint x="370" y="390" as="sourcePoint" />
            <mxPoint x="530" y="390" as="targetPoint" />
          </mxGeometry>
        </mxCell>
        <mxCell id="grHtKXQzRohqxR9XQCwC-41" value="" style="endArrow=none;html=1;rounded=0;exitX=1;exitY=0.5;exitDx=0;exitDy=0;entryX=0;entryY=0.5;entryDx=0;entryDy=0;" parent="1" source="grHtKXQzRohqxR9XQCwC-28" target="grHtKXQzRohqxR9XQCwC-29" edge="1">
          <mxGeometry relative="1" as="geometry">
            <mxPoint x="380" y="400" as="sourcePoint" />
            <mxPoint x="540" y="400" as="targetPoint" />
          </mxGeometry>
        </mxCell>
        <mxCell id="grHtKXQzRohqxR9XQCwC-42" value="" style="endArrow=none;html=1;rounded=0;exitX=1;exitY=0.5;exitDx=0;exitDy=0;entryX=0;entryY=0.5;entryDx=0;entryDy=0;" parent="1" source="grHtKXQzRohqxR9XQCwC-29" target="grHtKXQzRohqxR9XQCwC-24" edge="1">
          <mxGeometry relative="1" as="geometry">
            <mxPoint x="390" y="410" as="sourcePoint" />
            <mxPoint x="550" y="410" as="targetPoint" />
          </mxGeometry>
        </mxCell>
        <mxCell id="grHtKXQzRohqxR9XQCwC-43" value="" style="endArrow=none;html=1;rounded=0;exitX=0.5;exitY=1;exitDx=0;exitDy=0;entryX=0.5;entryY=0;entryDx=0;entryDy=0;entryPerimeter=0;" parent="1" source="grHtKXQzRohqxR9XQCwC-24" target="grHtKXQzRohqxR9XQCwC-31" edge="1">
          <mxGeometry relative="1" as="geometry">
            <mxPoint x="400" y="380" as="sourcePoint" />
            <mxPoint x="560" y="420" as="targetPoint" />
          </mxGeometry>
        </mxCell>
        <mxCell id="grHtKXQzRohqxR9XQCwC-44" value="" style="endArrow=none;html=1;rounded=0;exitX=0.5;exitY=0;exitDx=0;exitDy=0;entryX=0.5;entryY=1;entryDx=0;entryDy=0;entryPerimeter=0;" parent="1" source="grHtKXQzRohqxR9XQCwC-23" target="grHtKXQzRohqxR9XQCwC-31" edge="1">
          <mxGeometry relative="1" as="geometry">
            <mxPoint x="410" y="430" as="sourcePoint" />
            <mxPoint x="570" y="430" as="targetPoint" />
          </mxGeometry>
        </mxCell>
        <mxCell id="grHtKXQzRohqxR9XQCwC-45" value="" style="endArrow=none;html=1;rounded=0;exitX=0.5;exitY=1;exitDx=0;exitDy=0;entryX=0.5;entryY=-0.067;entryDx=0;entryDy=0;entryPerimeter=0;" parent="1" source="grHtKXQzRohqxR9XQCwC-23" target="grHtKXQzRohqxR9XQCwC-32" edge="1">
          <mxGeometry relative="1" as="geometry">
            <mxPoint x="420" y="440" as="sourcePoint" />
            <mxPoint x="580" y="440" as="targetPoint" />
          </mxGeometry>
        </mxCell>
        <mxCell id="grHtKXQzRohqxR9XQCwC-46" value="" style="endArrow=none;html=1;rounded=0;exitX=0.5;exitY=0;exitDx=0;exitDy=0;entryX=0.5;entryY=1;entryDx=0;entryDy=0;entryPerimeter=0;" parent="1" source="grHtKXQzRohqxR9XQCwC-16" target="grHtKXQzRohqxR9XQCwC-32" edge="1">
          <mxGeometry relative="1" as="geometry">
            <mxPoint x="430" y="450" as="sourcePoint" />
            <mxPoint x="590" y="450" as="targetPoint" />
          </mxGeometry>
        </mxCell>
        <mxCell id="grHtKXQzRohqxR9XQCwC-47" value="" style="endArrow=none;html=1;rounded=0;exitX=0.5;exitY=1;exitDx=0;exitDy=0;entryX=0.5;entryY=0;entryDx=0;entryDy=0;" parent="1" source="grHtKXQzRohqxR9XQCwC-2" target="grHtKXQzRohqxR9XQCwC-1" edge="1">
          <mxGeometry relative="1" as="geometry">
            <mxPoint x="320" y="400" as="sourcePoint" />
            <mxPoint x="480" y="400" as="targetPoint" />
          </mxGeometry>
        </mxCell>
        <mxCell id="grHtKXQzRohqxR9XQCwC-48" value="" style="endArrow=none;html=1;rounded=0;exitX=0;exitY=1;exitDx=0;exitDy=0;entryX=0.75;entryY=0;entryDx=0;entryDy=0;" parent="1" source="grHtKXQzRohqxR9XQCwC-3" target="grHtKXQzRohqxR9XQCwC-1" edge="1">
          <mxGeometry relative="1" as="geometry">
            <mxPoint x="190" y="170" as="sourcePoint" />
            <mxPoint x="190" y="210" as="targetPoint" />
          </mxGeometry>
        </mxCell>
        <mxCell id="grHtKXQzRohqxR9XQCwC-49" value="" style="endArrow=none;html=1;rounded=0;exitX=1;exitY=1;exitDx=0;exitDy=0;entryX=0.25;entryY=0;entryDx=0;entryDy=0;" parent="1" source="grHtKXQzRohqxR9XQCwC-4" target="grHtKXQzRohqxR9XQCwC-1" edge="1">
          <mxGeometry relative="1" as="geometry">
            <mxPoint x="275" y="164" as="sourcePoint" />
            <mxPoint x="215" y="210" as="targetPoint" />
          </mxGeometry>
        </mxCell>
        <mxCell id="grHtKXQzRohqxR9XQCwC-50" value="" style="endArrow=none;html=1;rounded=0;exitX=0.5;exitY=0;exitDx=0;exitDy=0;entryX=0.5;entryY=1;entryDx=0;entryDy=0;" parent="1" source="grHtKXQzRohqxR9XQCwC-6" target="grHtKXQzRohqxR9XQCwC-5" edge="1">
          <mxGeometry relative="1" as="geometry">
            <mxPoint x="320" y="430" as="sourcePoint" />
            <mxPoint x="480" y="430" as="targetPoint" />
          </mxGeometry>
        </mxCell>
        <mxCell id="grHtKXQzRohqxR9XQCwC-51" value="" style="endArrow=none;html=1;rounded=0;exitX=0;exitY=1;exitDx=0;exitDy=0;entryX=1;entryY=0;entryDx=0;entryDy=0;" parent="1" source="grHtKXQzRohqxR9XQCwC-5" target="grHtKXQzRohqxR9XQCwC-8" edge="1">
          <mxGeometry relative="1" as="geometry">
            <mxPoint x="190" y="530" as="sourcePoint" />
            <mxPoint x="190" y="490" as="targetPoint" />
          </mxGeometry>
        </mxCell>
        <mxCell id="grHtKXQzRohqxR9XQCwC-52" value="" style="endArrow=none;html=1;rounded=0;exitX=0;exitY=0;exitDx=0;exitDy=0;entryX=1;entryY=1;entryDx=0;entryDy=0;" parent="1" source="grHtKXQzRohqxR9XQCwC-7" target="grHtKXQzRohqxR9XQCwC-5" edge="1">
          <mxGeometry relative="1" as="geometry">
            <mxPoint x="200" y="540" as="sourcePoint" />
            <mxPoint x="200" y="500" as="targetPoint" />
          </mxGeometry>
        </mxCell>
        <mxCell id="grHtKXQzRohqxR9XQCwC-53" value="" style="endArrow=none;html=1;rounded=0;exitX=0;exitY=1;exitDx=0;exitDy=0;entryX=0.5;entryY=0;entryDx=0;entryDy=0;" parent="1" source="grHtKXQzRohqxR9XQCwC-16" target="grHtKXQzRohqxR9XQCwC-20" edge="1">
          <mxGeometry relative="1" as="geometry">
            <mxPoint x="210" y="550" as="sourcePoint" />
            <mxPoint x="210" y="510" as="targetPoint" />
          </mxGeometry>
        </mxCell>
        <mxCell id="grHtKXQzRohqxR9XQCwC-54" value="" style="endArrow=none;html=1;rounded=0;exitX=0.5;exitY=1;exitDx=0;exitDy=0;entryX=0.5;entryY=0;entryDx=0;entryDy=0;" parent="1" source="grHtKXQzRohqxR9XQCwC-16" target="grHtKXQzRohqxR9XQCwC-19" edge="1">
          <mxGeometry relative="1" as="geometry">
            <mxPoint x="220" y="560" as="sourcePoint" />
            <mxPoint x="220" y="520" as="targetPoint" />
          </mxGeometry>
        </mxCell>
        <mxCell id="grHtKXQzRohqxR9XQCwC-55" value="" style="endArrow=none;html=1;rounded=0;exitX=0.75;exitY=1;exitDx=0;exitDy=0;entryX=0;entryY=0.5;entryDx=0;entryDy=0;" parent="1" source="grHtKXQzRohqxR9XQCwC-16" target="grHtKXQzRohqxR9XQCwC-17" edge="1">
          <mxGeometry relative="1" as="geometry">
            <mxPoint x="230" y="570" as="sourcePoint" />
            <mxPoint x="230" y="530" as="targetPoint" />
          </mxGeometry>
        </mxCell>
        <mxCell id="grHtKXQzRohqxR9XQCwC-56" value="" style="endArrow=none;html=1;rounded=0;exitX=1;exitY=1;exitDx=0;exitDy=0;entryX=0;entryY=0.5;entryDx=0;entryDy=0;" parent="1" source="grHtKXQzRohqxR9XQCwC-16" target="grHtKXQzRohqxR9XQCwC-18" edge="1">
          <mxGeometry relative="1" as="geometry">
            <mxPoint x="240" y="580" as="sourcePoint" />
            <mxPoint x="240" y="540" as="targetPoint" />
          </mxGeometry>
        </mxCell>
        <mxCell id="grHtKXQzRohqxR9XQCwC-57" value="" style="endArrow=none;html=1;rounded=0;exitX=1;exitY=0.5;exitDx=0;exitDy=0;entryX=0;entryY=0.5;entryDx=0;entryDy=0;" parent="1" source="grHtKXQzRohqxR9XQCwC-16" target="grHtKXQzRohqxR9XQCwC-22" edge="1">
          <mxGeometry relative="1" as="geometry">
            <mxPoint x="250" y="590" as="sourcePoint" />
            <mxPoint x="250" y="550" as="targetPoint" />
          </mxGeometry>
        </mxCell>
        <mxCell id="grHtKXQzRohqxR9XQCwC-58" value="" style="endArrow=none;html=1;rounded=0;exitX=0.5;exitY=0;exitDx=0;exitDy=0;entryX=0.5;entryY=1;entryDx=0;entryDy=0;" parent="1" source="grHtKXQzRohqxR9XQCwC-24" target="grHtKXQzRohqxR9XQCwC-25" edge="1">
          <mxGeometry relative="1" as="geometry">
            <mxPoint x="260" y="600" as="sourcePoint" />
            <mxPoint x="260" y="560" as="targetPoint" />
          </mxGeometry>
        </mxCell>
        <mxCell id="grHtKXQzRohqxR9XQCwC-59" value="" style="endArrow=none;html=1;rounded=0;exitX=1;exitY=0;exitDx=0;exitDy=0;entryX=0;entryY=0.5;entryDx=0;entryDy=0;" parent="1" source="grHtKXQzRohqxR9XQCwC-24" target="grHtKXQzRohqxR9XQCwC-27" edge="1">
          <mxGeometry relative="1" as="geometry">
            <mxPoint x="270" y="610" as="sourcePoint" />
            <mxPoint x="270" y="570" as="targetPoint" />
          </mxGeometry>
        </mxCell>
        <mxCell id="grHtKXQzRohqxR9XQCwC-60" value="" style="endArrow=none;html=1;rounded=0;exitX=1;exitY=0.5;exitDx=0;exitDy=0;entryX=0;entryY=0.5;entryDx=0;entryDy=0;" parent="1" source="grHtKXQzRohqxR9XQCwC-24" target="grHtKXQzRohqxR9XQCwC-26" edge="1">
          <mxGeometry relative="1" as="geometry">
            <mxPoint x="280" y="620" as="sourcePoint" />
            <mxPoint x="280" y="580" as="targetPoint" />
          </mxGeometry>
        </mxCell>
        <mxCell id="7aRLWxt50dmtVga2rIe7-1" value="&lt;h1 style=&quot;line-height: 150%;&quot;&gt;&lt;div style=&quot;border-color: var(--border-color); font-size: 12px; line-height: 130%;&quot;&gt;&lt;font style=&quot;border-color: var(--border-color);&quot;&gt;&lt;span style=&quot;border-color: var(--border-color);&quot;&gt;&lt;span style=&quot;border-color: var(--border-color);&quot;&gt;&lt;span style=&quot;font-weight: 400;&quot;&gt;Equipo (&lt;/span&gt;&lt;u style=&quot;&quot;&gt;ID Equipo&lt;/u&gt;&lt;/span&gt;&lt;span style=&quot;border-color: var(--border-color);&quot;&gt;:&lt;/span&gt;&lt;font style=&quot;font-weight: 400; border-color: var(--border-color);&quot; color=&quot;#808080&quot;&gt;&amp;nbsp;int&lt;/font&gt;&lt;span style=&quot;font-weight: 400;&quot;&gt;, Nombre : &lt;font color=&quot;#808080&quot;&gt;varchar&lt;/font&gt;&lt;/span&gt;&lt;span style=&quot;font-weight: 400;&quot;&gt;&amp;nbsp; , Localidad: &lt;font color=&quot;#999999&quot;&gt;varchar&lt;/font&gt;&lt;/span&gt;&lt;span style=&quot;font-weight: 400;&quot;&gt;)&lt;/span&gt;&lt;br&gt;&lt;/span&gt;&lt;/font&gt;&lt;/div&gt;&lt;div style=&quot;border-color: var(--border-color); font-size: 12px; line-height: 130%;&quot;&gt;&lt;font style=&quot;border-color: var(--border-color);&quot;&gt;&lt;span style=&quot;border-color: var(--border-color);&quot;&gt;&lt;span style=&quot;border-color: var(--border-color);&quot;&gt;&lt;span style=&quot;font-weight: 400;&quot;&gt;Jugador (&lt;/span&gt;&lt;u&gt;Ficha&lt;/u&gt;&lt;/span&gt;&lt;span style=&quot;font-weight: 400; border-color: var(--border-color);&quot;&gt;&amp;nbsp;&lt;/span&gt;&lt;span style=&quot;font-weight: 400; border-color: var(--border-color);&quot;&gt;: &lt;font color=&quot;#808080&quot;&gt;varchar&lt;/font&gt;&lt;/span&gt;&lt;span style=&quot;border-color: var(--border-color);&quot;&gt;&lt;span style=&quot;font-weight: 400;&quot;&gt;&amp;nbsp;, Nombre: &lt;/span&gt;&lt;font style=&quot;font-weight: 400;&quot; color=&quot;#999999&quot;&gt;varchar,&amp;nbsp; &lt;/font&gt;&lt;span style=&quot;font-weight: 400;&quot;&gt;Apellido&lt;/span&gt;&lt;font style=&quot;font-weight: 400;&quot; color=&quot;#999999&quot;&gt;: varchar&lt;/font&gt;&lt;span style=&quot;font-weight: 400;&quot;&gt;&amp;nbsp; , &lt;/span&gt;&lt;i style=&quot;&quot;&gt;Equipo [Ref__ID_Equipo]&lt;/i&gt;&lt;/span&gt;&lt;span style=&quot;border-color: var(--border-color);&quot;&gt;&lt;span style=&quot;font-weight: 400;&quot;&gt;)&amp;nbsp;&lt;/span&gt;&lt;/span&gt;&lt;/span&gt;&lt;/font&gt;&lt;/div&gt;&lt;div style=&quot;border-color: var(--border-color); font-size: 12px; line-height: 130%;&quot;&gt;&lt;font style=&quot;border-color: var(--border-color);&quot;&gt;&lt;span style=&quot;border-color: var(--border-color);&quot;&gt;&lt;span style=&quot;font-weight: 400;&quot;&gt;Partido (&lt;/span&gt;&lt;u&gt;ID_Partido&lt;/u&gt;&lt;/span&gt;&lt;span style=&quot;font-weight: 400;&quot;&gt;: &lt;font color=&quot;#808080&quot;&gt;int&lt;/font&gt;&lt;/span&gt;&lt;b style=&quot;font-weight: 400; border-color: var(--border-color);&quot;&gt;,&lt;/b&gt;&lt;span style=&quot;font-weight: 400;&quot;&gt;&amp;nbsp;Estadio: &lt;font color=&quot;#999999&quot;&gt;varchar, &lt;/font&gt;Hora&lt;font color=&quot;#999999&quot;&gt;: time, &lt;/font&gt;Fecha&lt;font color=&quot;#999999&quot;&gt;: date, &lt;/font&gt;Resultado&lt;font color=&quot;#999999&quot;&gt;: varchar&lt;/font&gt;&lt;/span&gt;&lt;span style=&quot;font-weight: 400;&quot;&gt;)&amp;nbsp;&lt;/span&gt;&lt;/font&gt;&lt;/div&gt;&lt;div style=&quot;border-color: var(--border-color); font-size: 12px; line-height: 130%;&quot;&gt;&lt;span style=&quot;background-color: initial; font-weight: 400; border-color: var(--border-color);&quot;&gt;Evento (&lt;/span&gt;&lt;span style=&quot;background-color: initial; border-color: var(--border-color);&quot;&gt;&lt;u&gt;ID_Evento&lt;/u&gt;&lt;/span&gt;&lt;span style=&quot;background-color: initial; font-weight: 400; border-color: var(--border-color);&quot;&gt;&amp;nbsp;:&lt;font color=&quot;#999999&quot;&gt;&amp;nbsp;int&lt;/font&gt;, Tipo:&lt;font color=&quot;#999999&quot;&gt;&amp;nbsp;varchar, &lt;/font&gt;Minuto:&lt;font color=&quot;#999999&quot;&gt; time&lt;/font&gt;&lt;/span&gt;&lt;span style=&quot;background-color: initial;&quot;&gt;&lt;span style=&quot;font-weight: 400;&quot;&gt;)&lt;/span&gt;&lt;i style=&quot;&quot;&gt;&lt;font style=&quot;&quot; color=&quot;#000000&quot;&gt;&amp;nbsp;&lt;/font&gt;&lt;/i&gt;&lt;/span&gt;&lt;/div&gt;&lt;div style=&quot;border-color: var(--border-color); font-size: 12px; line-height: 130%;&quot;&gt;&lt;span style=&quot;background-color: initial; font-weight: 400;&quot;&gt;&lt;br&gt;&lt;/span&gt;&lt;/div&gt;&lt;div style=&quot;border-color: var(--border-color); font-weight: 400; font-size: 12px; line-height: 150%;&quot;&gt;&lt;/div&gt;&lt;span style=&quot;border-color: var(--border-color); font-size: 12px;&quot;&gt;&lt;div style=&quot;border-color: var(--border-color); line-height: 150%;&quot;&gt;&lt;font style=&quot;border-color: var(--border-color);&quot;&gt;&lt;b style=&quot;font-style: normal; font-weight: 400; border-color: var(--border-color);&quot;&gt;Provocar(&lt;/b&gt;&lt;b style=&quot;font-style: normal; font-weight: 400; border-color: var(--border-color);&quot;&gt;&amp;nbsp;&lt;/b&gt;&lt;span style=&quot;border-color: var(--border-color);&quot;&gt;&lt;i&gt;&lt;u&gt;Jugador&lt;/u&gt;&lt;/i&gt;&lt;/span&gt;&lt;/font&gt;&lt;span style=&quot;font-weight: 400; background-color: initial; border-color: var(--border-color);&quot;&gt;&lt;b style=&quot;border-color: var(--border-color);&quot;&gt;&lt;u style=&quot;&quot;&gt;&lt;i&gt;[Ref_ Ficha] , Evento[Ref_ID_Evento]&lt;/i&gt;&lt;/u&gt;&lt;/b&gt;&lt;/span&gt;&lt;span style=&quot;font-weight: 400; background-color: initial;&quot;&gt;&lt;i&gt;&amp;nbsp;&lt;/i&gt;&lt;/span&gt;&lt;span style=&quot;font-style: normal; font-weight: 400; background-color: initial;&quot;&gt;)&lt;/span&gt;&lt;/div&gt;&lt;div style=&quot;border-color: var(--border-color); line-height: 150%;&quot;&gt;&lt;span style=&quot;font-style: normal;&quot;&gt;&lt;span style=&quot;font-weight: normal;&quot;&gt;Ocurrir&amp;nbsp;&lt;/span&gt;( &lt;/span&gt;&lt;i&gt;&lt;u&gt;Evento&lt;/u&gt;&lt;/i&gt;&lt;span style=&quot;background-color: initial; font-weight: normal; border-color: var(--border-color);&quot;&gt;&lt;span style=&quot;border-color: var(--border-color); background-color: initial;&quot;&gt;&lt;i&gt;&lt;b style=&quot;text-decoration-line: underline; border-color: var(--border-color);&quot;&gt;[Ref__ID_Evento] , &lt;/b&gt;&lt;b style=&quot;text-decoration-line: underline; border-color: var(--border-color);&quot;&gt;Partido&lt;/b&gt;&lt;b style=&quot;text-decoration-line: underline; border-color: var(--border-color);&quot;&gt;[Ref_ID_Partido]&lt;/b&gt;&lt;/i&gt;&lt;/span&gt;&lt;span style=&quot;text-decoration-line: underline; font-style: normal; border-color: var(--border-color); background-color: initial;&quot;&gt;&amp;nbsp;&lt;/span&gt;&lt;/span&gt;&lt;span style=&quot;font-style: normal; background-color: initial; font-weight: normal;&quot;&gt;)&amp;nbsp;&lt;/span&gt;&lt;/div&gt;&lt;div style=&quot;border-color: var(--border-color); line-height: 150%;&quot;&gt;&lt;span style=&quot;font-style: normal; background-color: initial; font-weight: normal;&quot;&gt;Participar(&lt;/span&gt;&lt;span style=&quot;background-color: initial;&quot;&gt;&lt;i&gt;&lt;u&gt;Equipo[Ref__ID_Equipo], Partido[Ref__ID_Partido]&lt;/u&gt;&lt;/i&gt;&lt;/span&gt;&lt;span style=&quot;font-style: normal; background-color: initial; font-weight: normal;&quot;&gt;)&lt;/span&gt;&lt;/div&gt;&lt;/span&gt;&lt;/h1&gt;" style="text;html=1;strokeColor=none;fillColor=#dbdbdb;spacing=5;spacingTop=-20;whiteSpace=wrap;overflow=hidden;rounded=0;fontColor=#333333;" parent="1" vertex="1">
          <mxGeometry x="70" y="680" width="650" height="160" as="geometry" />
        </mxCell>
      </root>
    </mxGraphModel>
  </diagram>
</mxfile>
